<svg width="20" height="20" viewBox="0 0 20 20" fill="none" xmlns="http://www.w3.org/2000/svg">
<path fill-rule="evenodd" clip-rule="evenodd" d="M0 10.0559C0 15.0279 3.61111 19.162 8.33333 20L8.38906 19.9552C8.37052 19.9516 8.35198 19.9479 8.33343 19.9442V12.8492H5.83343V10.0559H8.33343V7.82126C8.33343 5.30729 9.94455 3.91064 12.2223 3.91064C12.9445 3.91064 13.7223 4.02238 14.4445 4.13411V6.70394H13.1668C11.9445 6.70394 11.6668 7.31847 11.6668 8.10059V10.0559H14.3334L13.889 12.8492H11.6668V19.9442C11.6482 19.9479 11.6296 19.9516 11.611 19.9552L11.6667 20C16.3889 19.162 20 15.0279 20 10.0559C20 4.52514 15.5 0 10 0C4.5 0 0 4.52514 0 10.0559Z" fill="#D50808"/>
</svg>
