<svg width="220" height="56" viewBox="0 0 220 56" fill="none" xmlns="http://www.w3.org/2000/svg">
<path d="M101.024 56.0004H44.7983V43.3506H50.0689V50.7377H101.024V56.0004Z" fill="#E50016"/>
<path d="M100.883 16.3308H95.612V5.26265H50.0689V16.3308H44.7983V0H100.883V16.3308Z" fill="#E50016"/>
<path d="M22.902 13.761C28.116 13.761 30.0803 15.8007 30.0803 19.987V21.7977C30.0803 23.9505 29.2506 25.5352 27.6634 26.5928C29.4391 27.6095 30.272 29.2319 30.272 31.46V33.6567C30.272 37.6578 28.6094 40.184 23.5809 40.184H1.13458C0.376104 40.184 -0.00208658 39.8075 8.658e-06 39.0543V14.8907C8.658e-06 14.1334 0.378199 13.7557 1.13458 13.7578L22.902 13.761ZM5.78286 24.7444H21.2772C23.7694 24.7444 24.5269 23.9913 24.5269 22.5195V21.236C24.5269 19.6889 23.694 18.9734 21.7297 18.9734H6.28572C5.94629 18.9734 5.79544 19.124 5.79544 19.4629L5.78286 24.7444ZM5.78286 28.8585V34.482C5.78286 34.821 5.93372 34.9716 6.27315 34.9716H21.7674C23.7694 34.9716 24.5646 34.2561 24.5646 32.6713V31.2372C24.5646 29.6901 23.7694 28.8585 21.2772 28.8585H5.78286Z" fill="white"/>
<path d="M39.1914 11.7995C39.7603 11.7995 40.0243 12.0631 40.0243 12.6311V16.2148C40.0243 16.7797 39.7603 17.0809 39.1914 17.0809H35.4891C35.3716 17.0956 35.2522 17.0834 35.1401 17.0451C35.028 17.0068 34.9261 16.9435 34.8421 16.86C34.7582 16.7765 34.6944 16.675 34.6557 16.5632C34.617 16.4514 34.6043 16.3322 34.6185 16.2148V12.6216C34.6185 12.0536 34.9328 11.79 35.4891 11.79L39.1914 11.7995ZM39.1914 19.4596C39.7603 19.4596 40.0243 19.7734 40.0243 20.3289V39.346C40.0243 39.9108 39.7603 40.1744 39.1914 40.1744H35.4891C34.9234 40.1744 34.6563 39.9108 34.6563 39.346V20.3289C34.6563 19.7609 34.9234 19.4596 35.4891 19.4596H39.1914Z" fill="white"/>
<path d="M49.3585 19.46C49.9274 19.46 50.1914 19.7738 50.1914 20.3292V27.6473H55.2923C57.4483 27.6473 58.0894 27.4591 59.0637 26.0626L63.2563 20.1001C63.5957 19.6482 63.8251 19.4725 64.4285 19.4725H68.6714C69.2371 19.4725 69.4257 19.9997 69.0485 20.4924L64.174 27.1703C63.5228 28.0802 62.7461 28.8937 61.8671 29.5867C62.9124 30.1922 63.815 31.0152 64.5134 31.9999L69.9191 39.2459C69.9927 39.3298 70.0398 39.4334 70.0548 39.5439C70.0698 39.6544 70.0518 39.7668 70.0033 39.8672C69.9547 39.9675 69.8776 40.0514 69.7816 40.1083C69.6856 40.1653 69.5749 40.1927 69.4634 40.1873H65.1923C64.5637 40.1873 64.3625 40.0743 64.0608 39.6601L59.4503 33.3211C58.542 32.0658 57.75 31.7363 55.6788 31.7363H50.1914V39.3589C50.1914 39.9237 49.9274 40.1873 49.3585 40.1873H45.6563C45.0874 40.1873 44.7857 39.9237 44.7857 39.3589V20.3418C44.7709 20.2241 44.7832 20.1046 44.8217 19.9924C44.8602 19.8802 44.9239 19.7783 45.0079 19.6944C45.0919 19.6105 45.194 19.5469 45.3063 19.5085C45.4187 19.47 45.5384 19.4577 45.6563 19.4725L49.3585 19.46Z" fill="white"/>
<path d="M77.5532 11.7998C78.122 11.7998 78.386 12.1136 78.386 12.6691V27.3712H95.6183V20.3293C95.6183 19.7613 95.8823 19.46 96.4512 19.46H100.153C100.271 19.4452 100.391 19.4575 100.503 19.4959C100.616 19.5344 100.718 19.598 100.802 19.6819C100.886 19.7657 100.949 19.8677 100.988 19.9799C101.027 20.0921 101.039 20.2116 101.024 20.3293V46.746C101.024 47.3109 100.71 47.5777 100.153 47.5777H96.4512C95.8823 47.5777 95.6183 47.3109 95.6183 46.746V31.8368H78.386V39.3463C78.386 39.9112 78.122 40.1748 77.5532 40.1748H73.8572C73.2883 40.1748 72.9866 39.9112 72.9866 39.3463V12.6722C72.9718 12.5545 72.9841 12.435 73.0226 12.3228C73.0611 12.2106 73.1248 12.1087 73.2088 12.0248C73.2928 11.941 73.3949 11.8774 73.5072 11.8389C73.6196 11.8005 73.7393 11.7882 73.8572 11.803L77.5532 11.7998Z" fill="white"/>
<path d="M122.527 19.46C129.332 19.46 131.522 21.6567 131.522 27.1201V37.1622C131.522 39.6162 130.919 40.181 128.728 40.181H110.739C106.279 40.181 104.918 38.5586 104.918 34.8242V33.0198C104.918 29.8503 106.279 28.0773 110.739 28.0773H126.12V27.3586C126.12 24.9454 125.287 24.0008 121.999 24.0008H106.203C105.751 24.0008 105.521 23.8125 105.521 23.3199V20.1535C105.509 20.0612 105.518 19.9674 105.548 19.8792C105.578 19.791 105.628 19.7109 105.694 19.6453C105.76 19.5796 105.84 19.5301 105.929 19.5007C106.017 19.4712 106.111 19.4627 106.203 19.4756L122.527 19.46ZM126.12 34.7427V31.4225H112.291C110.742 31.4225 110.173 32.0501 110.173 33.2709V34.0617C110.173 35.4205 110.742 36.0261 112.291 36.0261H125.023C125.818 36.0261 126.12 35.6841 126.12 34.7427Z" fill="white"/>
<path d="M157.108 13.7608C162.891 13.7608 165.236 16.4407 165.236 21.5339V24.3268C165.236 29.42 162.891 32.1 157.108 32.1H141.463V39.3459C141.463 39.9108 141.199 40.1744 140.633 40.1744H136.548C135.982 40.1744 135.68 39.9108 135.68 39.3459V14.8936C135.68 14.1363 136.057 13.7587 136.812 13.7608H157.108ZM141.463 27.1198H155.939C158.507 27.1198 159.453 26.0246 159.453 23.762V22.3278C159.453 20.0621 158.51 18.9701 155.939 18.9701H141.957C141.617 18.9701 141.463 19.083 141.463 19.4219V27.1198Z" fill="#E50016"/>
<path d="M187.943 19.4598C188.035 19.4467 188.129 19.4552 188.217 19.4847C188.306 19.5141 188.386 19.5636 188.452 19.6294C188.518 19.6952 188.567 19.7753 188.597 19.8635C188.626 19.9517 188.635 20.0456 188.622 20.1377V23.3072C188.622 23.7998 188.395 23.9881 187.943 23.9881H177.886C174.636 23.9881 173.765 24.9704 173.765 28.1399V39.3462C173.765 39.911 173.501 40.1746 172.936 40.1746H169.246C168.677 40.1746 168.375 39.911 168.375 39.3462V27.1074C168.375 21.6345 170.575 19.4473 177.37 19.4473L187.943 19.4598Z" fill="#E50016"/>
<path d="M211.005 19.46C217.809 19.46 220 21.6567 220 27.1201V32.5554C220 38.0251 217.8 40.1748 211.005 40.1748H200.319C193.518 40.1748 191.325 38.0251 191.325 32.5554V27.1201C191.325 21.6472 193.525 19.46 200.319 19.46H211.005ZM196.721 31.6108C196.721 34.7803 197.588 35.7625 200.841 35.7625H210.477C213.765 35.7625 214.635 34.7803 214.635 31.6108V28.0239C214.635 24.8544 213.765 23.913 210.477 23.913H200.829C197.576 23.913 196.708 24.8544 196.708 28.0239L196.721 31.6108Z" fill="#E50016"/>
</svg>
