<svg width="32" height="32" viewBox="0 0 32 32" fill="none" xmlns="http://www.w3.org/2000/svg">
<path d="M16 32C24.8366 32 32 24.8366 32 16C32 7.16344 24.8366 0 16 0C7.16344 0 0 7.16344 0 16C0 24.8366 7.16344 32 16 32Z" fill="url(#paint0_linear_795_4485)"/>
<path d="M7.24248 15.831C11.9068 13.7989 15.0171 12.4591 16.5733 11.8118C21.0167 9.9637 21.94 9.64265 22.5418 9.63194C22.6741 9.62972 22.9701 9.66252 23.1618 9.81807C23.3236 9.94942 23.3682 10.1268 23.3895 10.2514C23.4108 10.3759 23.4373 10.6596 23.4162 10.8812C23.1755 13.4112 22.1336 19.5508 21.6035 22.3844C21.3792 23.5834 20.9376 23.9855 20.5101 24.0248C19.5809 24.1103 18.8754 23.4108 17.9754 22.8208C16.5672 21.8977 15.7717 21.3231 14.4048 20.4223C12.8251 19.3813 13.8491 18.8092 14.7494 17.8741C14.985 17.6294 19.0789 13.9057 19.1581 13.568C19.168 13.5257 19.1772 13.3682 19.0836 13.2851C18.9901 13.2019 18.852 13.2304 18.7524 13.253C18.6111 13.285 16.3615 14.7719 12.0035 17.7137C11.3649 18.1522 10.7865 18.3659 10.2683 18.3547C9.69706 18.3423 8.59814 18.0316 7.78121 17.7661C6.77921 17.4404 5.98284 17.2682 6.05218 16.715C6.0883 16.4269 6.48507 16.1322 7.24248 15.831Z" fill="white"/>
<defs>
<linearGradient id="paint0_linear_795_4485" x1="16" y1="0" x2="16" y2="31.7626" gradientUnits="userSpaceOnUse">
<stop stop-color="#2AABEE"/>
<stop offset="1" stop-color="#229ED9"/>
</linearGradient>
</defs>
</svg>
