<svg width="30" height="32" viewBox="0 0 30 32" fill="none" xmlns="http://www.w3.org/2000/svg">
<path d="M26.6137 3.12122C25.8276 2.38748 22.6509 0.0546621 15.5752 0.0229688C15.5752 0.0229688 7.23104 -0.486044 3.16341 3.28833C0.899124 5.57937 0.102591 8.93165 0.0185705 13.0878C-0.06545 17.2439 -0.174155 25.0328 7.24765 27.1447H7.25478L7.25003 30.3673C7.25003 30.3673 7.20256 31.672 8.05178 31.9381C9.07902 32.2608 9.68188 31.2691 10.6626 30.2002C11.2009 29.6134 11.9443 28.7515 12.5044 28.0926C17.5803 28.5248 21.4841 27.537 21.9275 27.391C22.9524 27.0549 28.7517 26.3034 29.6949 18.515C30.6685 10.4875 29.224 5.40986 26.6137 3.12122Z" fill="white"/>
<path d="M24.9632 4.7433C24.2986 4.13249 21.43 2.30916 15.4446 2.28275C15.4446 2.28275 8.35702 1.81168 4.91645 4.96419C3.00155 6.87683 2.35644 9.72106 2.28571 13.192C2.21498 16.6628 1.84852 23.2935 8.12442 25.0572C8.12442 25.0572 8.09974 29.9798 8.09689 30.4124C8.09689 30.715 8.14436 30.9219 8.31525 30.9647C8.43819 30.9949 8.62237 30.9306 8.77902 30.7726C9.78252 29.7531 12.9952 25.8323 12.9952 25.8323C17.3059 26.117 20.7356 25.256 21.1044 25.1341C21.974 24.8512 26.6778 24.4426 27.4738 17.9378C28.2965 11.2327 27.1714 6.65594 24.9632 4.7433Z" fill="#7360F2"/>
<path fill-rule="evenodd" clip-rule="evenodd" d="M15.6968 10.3837C15.7084 10.1605 15.8966 9.98891 16.1173 10.0006C16.9431 10.0441 17.6301 10.297 18.1193 10.8088C18.6068 11.3186 18.8457 12.0308 18.8876 12.8861C18.8986 13.1094 18.7285 13.2994 18.5078 13.3105C18.2871 13.3216 18.0992 13.1495 18.0883 12.9262C18.0524 12.194 17.8538 11.6956 17.5441 11.3716C17.2362 11.0496 16.7664 10.8455 16.0756 10.8091C15.8549 10.7974 15.6853 10.607 15.6968 10.3837Z" fill="white"/>
<path fill-rule="evenodd" clip-rule="evenodd" d="M15.0902 8.20341C15.1063 7.98043 15.2981 7.8129 15.5185 7.82922C17.199 7.95363 18.5516 8.53448 19.5368 9.62244L19.5369 9.62259C20.5115 10.6998 20.9747 12.0399 20.941 13.6118C20.9363 13.8353 20.7533 14.0126 20.5323 14.0078C20.3114 14.0029 20.1361 13.8178 20.1409 13.5943C20.1706 12.2081 19.7676 11.0768 18.9465 10.1692C18.128 9.26536 16.9837 8.74948 15.4601 8.63668C15.2397 8.62036 15.0741 8.42638 15.0902 8.20341Z" fill="white"/>
<path fill-rule="evenodd" clip-rule="evenodd" d="M14.3838 6.12953C14.3853 5.90596 14.5657 5.72599 14.7867 5.72755C17.109 5.74391 19.072 6.526 20.648 8.08022C22.2373 9.64744 23.0232 11.7811 23.0431 14.431C23.0448 14.6545 22.867 14.8372 22.646 14.8389C22.425 14.8406 22.2445 14.6607 22.2428 14.4371C22.2241 11.954 21.4939 10.045 20.0894 8.65995C18.6717 7.2619 16.9115 6.55216 14.7812 6.53715C14.5602 6.53559 14.3823 6.35309 14.3838 6.12953Z" fill="white"/>
<path d="M16.1756 18.3279C16.1756 18.3279 16.7381 18.3759 17.041 17.9985L17.6315 17.247C17.9163 16.8744 18.6036 16.6367 19.2768 17.016C19.7812 17.307 20.2709 17.6234 20.744 17.9639C21.1907 18.2962 22.1054 19.0684 22.1083 19.0684C22.5441 19.4406 22.6447 19.987 22.348 20.5633C22.348 20.5666 22.3456 20.5724 22.3456 20.5753C22.0189 21.1483 21.604 21.6651 21.1167 22.1061C21.111 22.109 21.111 22.1119 21.1057 22.1148C20.6823 22.4727 20.2663 22.6761 19.8578 22.7251C19.7976 22.7358 19.7365 22.7396 19.6755 22.7367C19.4953 22.7384 19.3161 22.7105 19.1448 22.6541L19.1315 22.6344C18.5021 22.4548 17.4511 22.0053 15.7009 21.0286C14.6881 20.47 13.7239 19.8257 12.8186 19.1025C12.3648 18.7402 11.932 18.3519 11.5222 17.9394L11.4785 17.8953L11.4348 17.8511L11.3912 17.8069C11.3765 17.7925 11.3622 17.7776 11.3475 17.7627C10.9398 17.3482 10.5559 16.9103 10.1978 16.4513C9.483 15.5356 8.84607 14.5603 8.29381 13.536C7.32828 11.765 6.88397 10.7028 6.70644 10.0651L6.68697 10.0517C6.63132 9.87835 6.60391 9.69703 6.6058 9.51481C6.60248 9.45312 6.60614 9.39125 6.61672 9.33041C6.66767 8.91776 6.8691 8.49662 7.221 8.067C7.22385 8.06172 7.2267 8.06172 7.22955 8.05596C7.66546 7.56294 8.17631 7.14342 8.74286 6.8132C8.74571 6.8132 8.75141 6.81032 8.75473 6.81032C9.32436 6.51019 9.86456 6.61199 10.232 7.05042C10.2348 7.0533 10.9967 7.97865 11.3238 8.43051C11.6604 8.90963 11.9732 9.40549 12.2608 9.91625C12.6358 10.5967 12.4008 11.2935 12.0325 11.5806L11.2896 12.178C10.9146 12.4844 10.9639 13.0534 10.9639 13.0534C10.9639 13.0534 12.0643 17.2662 16.1756 18.3279Z" fill="white"/>
</svg>
