<svg width="126" height="32" viewBox="0 0 126 32" fill="none" xmlns="http://www.w3.org/2000/svg">
<path d="M57.8592 32H25.6572V24.7715H28.6758V28.9928H57.8592V32Z" fill="#E50016"/>
<path d="M57.7782 9.33191H54.7596V3.00723H28.6758V9.33191H25.6572V0H57.7782V9.33191Z" fill="#E50016"/>
<path d="M13.1166 7.8633C16.1028 7.8633 17.2278 9.02889 17.2278 11.421V12.4557C17.2278 13.6859 16.7526 14.5915 15.8436 15.1958C16.8606 15.7768 17.3376 16.7039 17.3376 17.9771V19.2323C17.3376 21.5187 16.3854 22.9622 13.5054 22.9622H0.649805C0.215405 22.9622 -0.00119504 22.747 4.95868e-06 22.3166V8.50886C4.95868e-06 8.07609 0.216605 7.86031 0.649805 7.8615L13.1166 7.8633ZM3.312 14.1396H12.186C13.6134 14.1396 14.0472 13.7092 14.0472 12.8682V12.1347C14.0472 11.2507 13.5702 10.8418 12.4452 10.8418H3.6C3.4056 10.8418 3.31921 10.9279 3.31921 11.1216L3.312 14.1396ZM3.312 16.4905V19.7039C3.312 19.8976 3.3984 19.9837 3.5928 19.9837H12.4668C13.6134 19.9837 14.0688 19.5748 14.0688 18.6692V17.8497C14.0688 16.9657 13.6134 16.4905 12.186 16.4905H3.312Z" fill="#141414"/>
<path d="M22.446 6.74252C22.7718 6.74252 22.923 6.89315 22.923 7.21772V9.26558C22.923 9.58836 22.7718 9.7605 22.446 9.7605H20.3256C20.2583 9.7689 20.1899 9.7619 20.1257 9.74002C20.0615 9.71815 20.0031 9.68198 19.9551 9.63426C19.907 9.58655 19.8705 9.52854 19.8483 9.46465C19.8261 9.40077 19.8188 9.33269 19.827 9.26558V7.21234C19.827 6.88777 20.007 6.73714 20.3256 6.73714L22.446 6.74252ZM22.446 11.1198C22.7718 11.1198 22.923 11.2991 22.923 11.6165V22.4834C22.923 22.8062 22.7718 22.9568 22.446 22.9568H20.3256C20.0016 22.9568 19.8486 22.8062 19.8486 22.4834V11.6165C19.8486 11.2919 20.0016 11.1198 20.3256 11.1198H22.446Z" fill="#141414"/>
<path d="M28.269 11.1198C28.5948 11.1198 28.746 11.2991 28.746 11.6165V15.7983H31.6674C32.9022 15.7983 33.2694 15.6907 33.8274 14.8927L36.2286 11.4856C36.423 11.2274 36.5544 11.1269 36.9 11.1269H39.33C39.654 11.1269 39.762 11.4282 39.546 11.7097L36.7542 15.5257C36.3812 16.0456 35.9365 16.5105 35.433 16.9065C36.0317 17.2525 36.5486 17.7228 36.9486 18.2855L40.0446 22.426C40.0867 22.474 40.1138 22.5332 40.1223 22.5963C40.1309 22.6594 40.1206 22.7237 40.0928 22.781C40.065 22.8384 40.0208 22.8863 39.9658 22.9189C39.9109 22.9514 39.8475 22.9671 39.7836 22.964H37.3374C36.9774 22.964 36.8622 22.8994 36.6894 22.6627L34.0488 19.0404C33.5286 18.3231 33.075 18.1348 31.8888 18.1348H28.746V22.4906C28.746 22.8134 28.5948 22.964 28.269 22.964H26.1486C25.8228 22.964 25.65 22.8134 25.65 22.4906V11.6237C25.6415 11.5564 25.6486 11.4881 25.6706 11.424C25.6927 11.3599 25.7292 11.3017 25.7773 11.2537C25.8254 11.2058 25.8839 11.1695 25.9482 11.1475C26.0126 11.1255 26.0811 11.1185 26.1486 11.1269L28.269 11.1198Z" fill="#141414"/>
<path d="M44.4168 6.74251C44.7426 6.74251 44.8938 6.92183 44.8938 7.23923V15.6405H54.7632V11.6093C54.7632 11.2847 54.9144 11.1126 55.2402 11.1126H57.3606C57.4281 11.1041 57.4966 11.1112 57.561 11.1331C57.6254 11.1551 57.6838 11.1914 57.7319 11.2394C57.78 11.2873 57.8165 11.3455 57.8386 11.4097C57.8606 11.4738 57.8677 11.5421 57.8592 11.6093V26.7046C57.8592 27.0274 57.6792 27.1798 57.3606 27.1798H55.2402C54.9144 27.1798 54.7632 27.0274 54.7632 26.7046V18.185H44.8938V22.4762C44.8938 22.799 44.7426 22.9496 44.4168 22.9496H42.3C41.9742 22.9496 41.8014 22.799 41.8014 22.4762V7.23385C41.7929 7.1666 41.8 7.09832 41.822 7.0342C41.8441 6.97008 41.8806 6.91184 41.9287 6.86391C41.9768 6.81599 42.0352 6.77965 42.0996 6.75768C42.1639 6.7357 42.2325 6.72868 42.3 6.73713L44.4168 6.74251Z" fill="#141414"/>
<path d="M70.1748 11.1198C74.0718 11.1198 75.3264 12.375 75.3264 15.497V21.2353C75.3264 22.6376 74.9808 22.9604 73.7262 22.9604H63.423C60.8688 22.9604 60.0894 22.0333 60.0894 19.8994V18.8683C60.0894 17.0571 60.8688 16.044 63.423 16.044H72.2322V15.6333C72.2322 14.2543 71.7552 13.7146 69.8724 13.7146H60.8256C60.5664 13.7146 60.435 13.607 60.435 13.3254V11.5161C60.4278 11.4634 60.433 11.4097 60.4501 11.3593C60.4672 11.3089 60.4958 11.2632 60.5336 11.2257C60.5715 11.1881 60.6175 11.1599 60.6682 11.143C60.7188 11.1262 60.7727 11.1213 60.8256 11.1287L70.1748 11.1198ZM72.2322 19.8527V17.9555H64.3122C63.4248 17.9555 63.099 18.3142 63.099 19.0117V19.4636C63.099 20.2401 63.4248 20.5862 64.3122 20.5862H71.604C72.0594 20.5862 72.2322 20.3907 72.2322 19.8527Z" fill="#141414"/>
<path d="M89.9802 7.86324C93.2922 7.86324 94.635 9.39465 94.635 12.305V13.901C94.635 16.8114 93.2922 18.3428 89.9802 18.3428H81.0198V22.4834C81.0198 22.8061 80.8686 22.9568 80.5446 22.9568H78.2046C77.8806 22.9568 77.7078 22.8061 77.7078 22.4834V8.51059C77.7078 8.07783 77.9238 7.86204 78.3558 7.86324H89.9802ZM81.0198 15.497H89.3106C90.7812 15.497 91.323 14.8711 91.323 13.5782V12.7587C91.323 11.464 90.783 10.84 89.3106 10.84H81.3024C81.108 10.84 81.0198 10.9045 81.0198 11.0982V15.497Z" fill="#E50016"/>
<path d="M107.64 11.1198C107.693 11.1123 107.747 11.1171 107.797 11.134C107.848 11.1508 107.894 11.1791 107.932 11.2167C107.969 11.2543 107.998 11.3001 108.015 11.3505C108.031 11.4009 108.036 11.4545 108.029 11.5071V13.3183C108.029 13.5998 107.899 13.7074 107.64 13.7074H101.88C100.019 13.7074 99.5202 14.2687 99.5202 16.0798V22.4834C99.5202 22.8062 99.369 22.9568 99.045 22.9568H96.9318C96.606 22.9568 96.4332 22.8062 96.4332 22.4834V15.4899C96.4332 12.3625 97.6932 11.1126 101.585 11.1126L107.64 11.1198Z" fill="#E50016"/>
<path d="M120.848 11.1198C124.745 11.1198 126 12.375 126 15.497V18.6029C126 21.7285 124.74 22.9568 120.848 22.9568H114.728C110.833 22.9568 109.577 21.7285 109.577 18.6029V15.497C109.577 12.3696 110.837 11.1198 114.728 11.1198H120.848ZM112.667 18.0631C112.667 19.8743 113.164 20.4355 115.027 20.4355H120.546C122.429 20.4355 122.927 19.8743 122.927 18.0631V16.0153C122.927 14.2023 122.429 13.6644 120.546 13.6644H115.02C113.157 13.6644 112.66 14.2023 112.66 16.0153L112.667 18.0631Z" fill="#E50016"/>
</svg>
