<svg width="37" height="32" viewBox="0 0 37 32" fill="none" xmlns="http://www.w3.org/2000/svg">
<g opacity="0.1">
<path d="M36.9921 8.81747C36.9921 3.94759 33.0489 0 28.1845 0C23.32 0 19.3768 3.94759 19.3768 8.81747C19.3768 13.6874 23.32 17.6349 28.1845 17.6349C29.1842 17.6349 30.1412 17.4604 31.037 17.1529C29.055 28.5334 20.1902 35.8725 28.4078 29.8323C37.5198 23.1343 37.0019 9.08694 36.9917 8.8295C36.9917 8.82549 36.9921 8.82192 36.9921 8.81747Z" fill="#D50808"/>
<path d="M17.6154 8.81747C17.6154 3.94759 13.6722 0 8.80771 0C3.94322 0 1.33514e-05 3.94759 1.33514e-05 8.81747C1.33514e-05 13.6874 3.9433 17.6349 8.80778 17.6349C9.80757 17.6349 10.7645 17.4604 11.6603 17.1529C9.67823 28.5334 0.813503 35.8725 9.03107 29.8323C18.1431 23.1343 17.6252 9.08694 17.615 8.8295C17.615 8.82549 17.6154 8.82192 17.6154 8.81747Z" fill="#D50808"/>
</g>
</svg>
