<svg width="42" height="48" viewBox="0 0 42 48" fill="none" xmlns="http://www.w3.org/2000/svg">
<path d="M9.74883 0C8.4918 0 7.50166 1.0135 7.50166 2.247V3.00138H3.74714C1.68256 3.00138 -6.10352e-05 4.65163 -6.10352e-05 6.74833V44.2516C-6.10352e-05 46.3307 1.68256 48 3.74714 48H38.2513C40.3159 48 42 46.3278 42 44.2516V6.74833C42 4.68386 40.3335 3.00138 38.2513 3.00138H34.4982V2.247C34.4982 1.0135 33.5037 0 32.2496 0C30.9955 0 30.0025 1.0135 30.0025 2.247V3.00138H11.9974V2.247C11.9974 1.0135 11.0058 0 9.74883 0ZM9.74883 1.49995C10.1568 1.49995 10.4959 1.81854 10.4959 2.247V5.24838C10.4959 5.67683 10.1483 6.00129 9.74883 6.00129C9.34934 6.00129 8.99586 5.67683 8.99586 5.24838V2.247C8.99586 1.81854 9.34083 1.49995 9.74883 1.49995ZM32.2496 1.49995C32.6576 1.49995 32.9967 1.81854 32.9967 2.247V5.24838C32.9967 5.67683 32.6605 6.00129 32.2496 6.00129C31.8387 6.00129 31.4967 5.67683 31.4967 5.24838V2.247C31.4967 1.81854 31.8416 1.49995 32.2496 1.49995ZM3.74714 4.50133H7.50166V5.24838C7.50166 6.48187 8.48554 7.50124 9.74883 7.50124C11.0121 7.50124 11.9974 6.48187 11.9974 5.24838V4.50133H30.0025V5.24838C30.0025 6.48187 31.0014 7.50124 32.2496 7.50124C33.4978 7.50124 34.4982 6.48187 34.4982 5.24838V4.50133H38.2513C39.4932 4.50133 40.4999 5.4889 40.4999 6.74833V10.5026H1.50001V6.74833C1.50001 5.50647 2.48762 4.50133 3.74714 4.50133ZM15.7505 6.74833C14.7278 6.74833 14.7278 8.24828 15.7505 8.24828H26.2479C27.2707 8.24828 27.2707 6.74833 26.2479 6.74833H15.7505ZM1.50001 11.9967H40.4999V33.0019H35.2512C33.1659 33.0019 31.4967 34.661 31.4967 36.7503V41.9973H3.74714C2.51662 41.9973 1.50001 41.0097 1.50001 39.7502V11.9967ZM6.00162 14.9981C5.166 14.9981 4.50011 15.68 4.50011 16.498V19.4979C4.50011 20.3394 5.18357 20.9994 6.00162 20.9994H8.99586C9.83735 20.9994 10.4959 20.3159 10.4959 19.4979V16.498C10.4959 15.68 9.83148 14.9981 8.99586 14.9981H6.00162ZM14.9975 14.9981C14.1619 14.9981 13.4975 15.68 13.4975 16.498V19.4979C13.4975 20.3335 14.1795 20.9994 14.9975 20.9994H17.9991C18.8465 20.9994 19.4992 20.3159 19.4992 19.4979V16.498C19.4992 15.68 18.8377 14.9981 17.9991 14.9981H14.9975ZM24.0008 14.9981C23.1622 14.9981 22.5007 15.68 22.5007 16.498V19.4979C22.5007 20.3452 23.1827 20.9994 24.0008 20.9994H27.0009C27.8424 20.9994 28.5024 20.3159 28.5024 19.4979V16.498C28.5024 15.68 27.8336 14.9981 27.0009 14.9981H24.0008ZM32.9967 14.9981C32.1611 14.9981 31.4967 15.68 31.4967 16.498V19.4979C31.4967 20.3159 32.1611 20.9994 32.9967 20.9994H35.9983C36.8427 20.9994 37.4983 20.3159 37.4983 19.4979V16.498C37.4983 15.68 36.8368 14.9981 35.9983 14.9981H32.9967ZM6.00162 16.498H8.99586V19.4979H6.00162V16.498ZM14.9975 16.498H17.9991V19.4979H14.9975V16.498ZM24.0008 16.498H27.0009V19.4979H24.0008V16.498ZM32.9967 16.498H35.9983V19.4979H32.9967V16.498ZM6.00162 23.9993C5.15134 23.9993 4.50011 24.6827 4.50011 25.5007V28.5006C4.50011 29.3186 5.16305 30.0006 6.00162 30.0006H8.99586C9.84322 30.0006 10.4959 29.3186 10.4959 28.5006V25.5007C10.4959 24.6827 9.8403 23.9993 8.99586 23.9993H6.00162ZM14.9975 23.9993C14.1619 23.9993 13.4975 24.6827 13.4975 25.5007V28.5006C13.4975 29.3186 14.1619 30.0006 14.9975 30.0006H17.9991C18.8377 30.0006 19.4992 29.3186 19.4992 28.5006V25.5007C19.4992 24.6827 18.8406 23.9993 17.9991 23.9993H14.9975ZM24.0008 23.9993C23.1827 23.9993 22.5007 24.6534 22.5007 25.5007V28.5006C22.5007 29.3332 23.1827 30.0006 24.0008 30.0006H27.0009C27.819 30.0006 28.5024 29.3362 28.5024 28.5006V25.5007C28.5024 24.6827 27.8397 23.9993 27.0009 23.9993H24.0008ZM32.9967 23.9993C32.1581 23.9993 31.4967 24.6827 31.4967 25.5007V28.5006C31.4967 29.3244 32.1786 30.0006 32.9967 30.0006H35.9983C36.8163 30.0006 37.4983 29.3332 37.4983 28.5006V25.5007C37.4983 24.6827 36.8398 23.9993 35.9983 23.9993H32.9967ZM6.00162 25.5007H8.99586V28.5006H6.00162V25.5007ZM14.9975 25.5007H17.9991V28.5006H14.9975V25.5007ZM24.0008 25.5007H27.0009V28.5006H24.0008V25.5007ZM32.9967 25.5007H35.9983V28.5006H32.9967V25.5007ZM6.00162 33.0019C5.18357 33.0019 4.50011 33.678 4.50011 34.496V37.4974C4.50011 38.3447 5.18357 38.9974 6.00162 38.9973H8.99586C9.81391 38.9973 10.4959 38.3359 10.4959 37.4974V34.496C10.4959 33.678 9.81391 33.0019 8.99586 33.0019H6.00162ZM14.9975 33.0019C14.1619 33.0019 13.4975 33.678 13.4975 34.496V37.4974C13.4975 38.33 14.1795 38.9973 14.9975 38.9973H17.9991C18.8406 38.9973 19.4992 38.3154 19.4992 37.4974V34.496C19.4992 33.678 18.8379 33.0019 17.9991 33.0019H14.9975ZM24.0008 33.0019C23.1622 33.0019 22.5007 33.678 22.5007 34.496V37.4974C22.5007 38.3154 23.1454 38.9973 24.0008 38.9973H27.0009C27.8395 38.9973 28.5024 38.3154 28.5024 37.4974V34.496C28.5024 33.6927 27.848 33.0019 27.0009 33.0019H24.0008ZM6.00162 34.496H8.99586V37.4974H6.00162V34.496ZM14.9975 34.496H17.9991V37.4974H14.9975V34.496ZM24.0008 34.496H27.0009V37.4974H24.0008V34.496ZM35.2512 34.496H39.4423L32.9967 40.9411V36.7503C32.9967 35.5114 33.9917 34.496 35.2512 34.496ZM40.4999 35.5595V44.2516C40.4999 45.4759 39.5108 46.4986 38.2513 46.4986H3.74714C2.51985 46.4986 1.50001 45.511 1.50001 44.2516V42.7297C2.12836 43.2052 2.90131 43.4987 3.74714 43.4987H32.2496C32.4492 43.4986 32.6406 43.419 32.7814 43.2776L40.4999 35.5595Z" fill="#D50808"/>
</svg>
