<svg width="24" height="24" viewBox="0 0 24 24" fill="none" xmlns="http://www.w3.org/2000/svg">
<path d="M6.29517 14.8125C6.99902 16.2171 8.19543 17.3231 9.67255 17.8922C9.23511 17.0449 8.91339 15.9738 8.71674 14.8125H6.29517Z" fill="#D50808"/>
<path d="M6.29517 9.18756H8.71674C8.91339 8.02631 9.23511 6.95514 9.67255 6.10791C8.19543 6.677 6.99902 7.78296 6.29517 9.18756Z" fill="#D50808"/>
<path d="M12.0284 5.68115C12.0134 5.68097 11.9996 5.67676 11.9848 5.67676C11.3604 5.6969 10.5443 7.00537 10.1407 9.18726H13.8591C13.4583 7.0202 12.6511 5.71814 12.0284 5.68115Z" fill="#D50808"/>
<path d="M11.9848 18.323C11.9996 18.3228 12.0134 18.3188 12.0284 18.3186C12.6509 18.2816 13.4583 16.9797 13.8591 14.8125H10.1407C10.5443 16.9944 11.3604 18.3029 11.9848 18.323Z" fill="#D50808"/>
<path d="M8.48438 12C8.48438 11.5322 8.5036 11.0607 8.54169 10.5938H5.77588C5.67206 11.0477 5.60596 11.5151 5.60596 12C5.60596 12.4849 5.67224 12.9523 5.77588 13.4062H8.54169C8.5036 12.9393 8.48438 12.4678 8.48438 12Z" fill="#D50808"/>
<path d="M14.3547 6.15723C14.7786 6.99622 15.0906 8.04944 15.2833 9.18726H17.573C16.8937 7.83154 15.7621 6.74243 14.3547 6.15723Z" fill="#D50808"/>
<path d="M15.5157 12C15.5157 12.4678 15.4964 12.9393 15.4583 13.4062H18.0923C18.1961 12.9523 18.2622 12.4849 18.2622 12C18.2622 11.5151 18.1961 11.0477 18.0923 10.5938H15.4583C15.4964 11.0607 15.5157 11.5322 15.5157 12Z" fill="#D50808"/>
<path d="M24 12C24 5.40894 18.5911 0 12 0C5.40894 0 0 5.40894 0 12C0 18.5911 5.40894 24 12 24C14.2055 24 16.3486 23.3516 18.2197 22.2098L24 24L22.3506 17.9828C23.3996 16.17 24 14.1086 24 12ZM12.0564 19.7281C12.0374 19.7289 12.0194 19.7344 12 19.7344C11.9929 19.7344 11.9865 19.7322 11.9793 19.732C11.9641 19.7322 11.9493 19.7344 11.9341 19.7344C7.66937 19.7344 4.19971 16.2647 4.19971 12C4.19971 7.73529 7.66937 4.26562 11.9341 4.26562C11.9493 4.26562 11.9641 4.26782 11.9793 4.26801C11.9865 4.26782 11.9929 4.26562 12 4.26562C12.0194 4.26562 12.0374 4.27112 12.0564 4.27185C16.2645 4.33813 19.6685 7.77649 19.6685 12C19.6685 16.2235 16.2645 19.6619 12.0564 19.7281Z" fill="#D50808"/>
<path d="M9.94904 10.5938C9.91187 11.0387 9.89062 11.5073 9.89062 12C9.89062 12.4927 9.91187 12.9613 9.94904 13.4062H14.051C14.0881 12.9613 14.1094 12.4927 14.1094 12C14.1094 11.5073 14.0881 11.0387 14.051 10.5938H9.94904Z" fill="#D50808"/>
<path d="M14.3547 17.8425C15.7621 17.2573 16.8937 16.1682 17.573 14.8125H15.2833C15.0906 15.9503 14.7786 17.0035 14.3547 17.8425Z" fill="#D50808"/>
</svg>
