<svg width="40" height="40" viewBox="0 0 40 40" fill="none" xmlns="http://www.w3.org/2000/svg">
<rect width="40" height="40" rx="4" fill="#D50808"/>
<path d="M27.5804 23.7424L25.3429 21.5095C24.5438 20.7121 23.1853 21.0311 22.8656 22.0677C22.6259 22.7855 21.8267 23.1842 21.1075 23.0247C19.5093 22.626 17.3517 20.5526 16.9521 18.878C16.7124 18.1602 17.1918 17.3628 17.911 17.1236C18.9499 16.8046 19.2696 15.4489 18.4704 14.6515L16.2329 12.4187C15.5936 11.8604 14.6346 11.8604 14.0752 12.4187L12.5569 13.9338C11.0386 15.5287 12.7167 19.7551 16.4726 23.5031C20.2285 27.2511 24.4639 29.0055 26.0621 27.4106L27.5804 25.8955C28.1399 25.2575 28.1399 24.3006 27.5804 23.7424Z" fill="white"/>
</svg>
