<svg width="20" height="20" viewBox="0 0 20 20" fill="none" xmlns="http://www.w3.org/2000/svg">
<path d="M16.0276 3.4249C14.792 1.33021 12.5972 0.0504882 10.1566 0.00158203C10.0524 -0.000527343 9.94758 -0.000527343 9.84336 0.00158203C7.4028 0.0504882 5.20807 1.33021 3.9724 3.4249C2.70937 5.56599 2.67482 8.13786 3.87994 10.3047L8.92868 19.3823C8.93094 19.3863 8.93321 19.3904 8.93555 19.3943C9.15768 19.7736 9.55562 20 10.0001 20C10.4445 20 10.8424 19.7736 11.0645 19.3943C11.0669 19.3904 11.0691 19.3863 11.0714 19.3823L16.1201 10.3047C17.3252 8.13786 17.2906 5.56599 16.0276 3.4249ZM9.99999 9.06251C8.42127 9.06251 7.13689 7.80083 7.13689 6.25001C7.13689 4.69919 8.42127 3.43752 9.99999 3.43752C11.5787 3.43752 12.8631 4.69919 12.8631 6.25001C12.8631 7.80083 11.5788 9.06251 9.99999 9.06251Z" fill="#D50808"/>
</svg>
