<svg width="220" height="56" viewBox="0 0 220 56" fill="none" xmlns="http://www.w3.org/2000/svg">
<path d="M101.024 55.9999H44.7983V43.3501H50.0689V50.7373H101.024V55.9999Z" fill="#E50016"/>
<path d="M100.883 16.3308H95.612V5.26265H50.0689V16.3308H44.7983V0H100.883V16.3308Z" fill="#E50016"/>
<path d="M22.902 13.761C28.116 13.761 30.0803 15.8007 30.0803 19.987V21.7977C30.0803 23.9505 29.2506 25.5352 27.6634 26.5928C29.4391 27.6095 30.272 29.232 30.272 31.46V33.6567C30.272 37.6579 28.6094 40.184 23.5809 40.184H1.13458C0.376104 40.184 -0.00208658 39.8075 8.65801e-06 39.0543V14.8907C8.65801e-06 14.1334 0.378199 13.7557 1.13458 13.7578L22.902 13.761ZM5.78286 24.7444H21.2772C23.7694 24.7444 24.5269 23.9913 24.5269 22.5195V21.236C24.5269 19.6889 23.694 18.9734 21.7297 18.9734H6.28572C5.94629 18.9734 5.79544 19.124 5.79544 19.4629L5.78286 24.7444ZM5.78286 28.8585V34.4821C5.78286 34.821 5.93372 34.9716 6.27315 34.9716H21.7674C23.7694 34.9716 24.5646 34.2561 24.5646 32.6714V31.2372C24.5646 29.6901 23.7694 28.8585 21.2772 28.8585H5.78286Z" fill="#141414"/>
<path d="M39.1915 11.7995C39.7603 11.7995 40.0243 12.0631 40.0243 12.6311V16.2148C40.0243 16.7797 39.7603 17.0809 39.1915 17.0809H35.4892C35.3716 17.0956 35.2522 17.0834 35.1401 17.0451C35.028 17.0068 34.9261 16.9435 34.8422 16.86C34.7583 16.7765 34.6945 16.675 34.6558 16.5632C34.617 16.4514 34.6043 16.3323 34.6186 16.2148V12.6216C34.6186 12.0536 34.9329 11.79 35.4892 11.79L39.1915 11.7995ZM39.1915 19.4596C39.7603 19.4596 40.0243 19.7734 40.0243 20.3289V39.346C40.0243 39.9109 39.7603 40.1745 39.1915 40.1745H35.4892C34.9235 40.1745 34.6563 39.9109 34.6563 39.346V20.3289C34.6563 19.7609 34.9235 19.4596 35.4892 19.4596H39.1915Z" fill="#141414"/>
<path d="M49.3586 19.4595C49.9275 19.4595 50.1915 19.7733 50.1915 20.3287V27.6469H55.2923C57.4483 27.6469 58.0895 27.4586 59.0638 26.0621L63.2563 20.0996C63.5957 19.6478 63.8252 19.472 64.4286 19.472H68.6715C69.2372 19.472 69.4258 19.9992 69.0486 20.4919L64.174 27.1699C63.5228 28.0797 62.7462 28.8932 61.8672 29.5862C62.9125 30.1917 63.815 31.0147 64.5135 31.9995L69.9192 39.2454C69.9927 39.3293 70.0399 39.4329 70.0549 39.5434C70.0698 39.6539 70.0519 39.7663 70.0033 39.8667C69.9547 39.9671 69.8776 40.0509 69.7816 40.1079C69.6856 40.1648 69.575 40.1923 69.4635 40.1868H65.1923C64.5637 40.1868 64.3626 40.0739 64.0609 39.6596L59.4503 33.3206C58.542 32.0654 57.75 31.7359 55.6789 31.7359H50.1915V39.3584C50.1915 39.9232 49.9275 40.1868 49.3586 40.1868H45.6563C45.0875 40.1868 44.7858 39.9232 44.7858 39.3584V20.3413C44.7709 20.2236 44.7832 20.1041 44.8218 19.9919C44.8603 19.8797 44.924 19.7778 45.008 19.6939C45.0919 19.61 45.194 19.5464 45.3064 19.508C45.4188 19.4695 45.5385 19.4572 45.6563 19.472L49.3586 19.4595Z" fill="#141414"/>
<path d="M77.5531 11.7992C78.122 11.7992 78.386 12.113 78.386 12.6684V27.3706H95.6183V20.3161C95.6183 19.7481 95.8823 19.4468 96.4511 19.4468H100.153C100.271 19.432 100.391 19.4443 100.503 19.4828C100.616 19.5212 100.718 19.5848 100.802 19.6687C100.886 19.7526 100.949 19.8545 100.988 19.9667C101.026 20.0789 101.039 20.1984 101.024 20.3161V46.7329C101.024 47.2978 100.71 47.5645 100.153 47.5645H96.4511C95.8823 47.5645 95.6183 47.2978 95.6183 46.7329V31.8236H78.386V39.3332C78.386 39.898 78.122 40.1616 77.5531 40.1616H73.8571C73.2883 40.1616 72.9866 39.898 72.9866 39.3332V12.659C72.9717 12.5413 72.9841 12.4218 73.0226 12.3096C73.0611 12.1974 73.1248 12.0955 73.2088 12.0116C73.2928 11.9278 73.3948 11.8642 73.5072 11.8257C73.6196 11.7873 73.7393 11.775 73.8571 11.7898L77.5531 11.7992Z" fill="#141414"/>
<path d="M122.527 19.4595C129.332 19.4595 131.522 21.6562 131.522 27.1197V37.1617C131.522 39.6157 130.919 40.1806 128.728 40.1806H110.739C106.279 40.1806 104.918 38.5582 104.918 34.8238V33.0193C104.918 29.8498 106.279 28.0768 110.739 28.0768H126.12V27.3581C126.12 24.9449 125.287 24.0004 121.999 24.0004H106.203C105.751 24.0004 105.521 23.8121 105.521 23.3194V20.153C105.509 20.0608 105.518 19.9669 105.548 19.8787C105.578 19.7905 105.628 19.7104 105.694 19.6448C105.76 19.5791 105.84 19.5296 105.929 19.5002C106.017 19.4708 106.111 19.4622 106.203 19.4752L122.527 19.4595ZM126.12 34.7422V31.422H112.291C110.742 31.422 110.173 32.0497 110.173 33.2704V34.0612C110.173 35.42 110.742 36.0257 112.291 36.0257H125.023C125.818 36.0257 126.12 35.6836 126.12 34.7422Z" fill="#141414"/>
<path d="M157.108 13.7608C162.891 13.7608 165.236 16.4407 165.236 21.5339V24.3268C165.236 29.42 162.891 32.1 157.108 32.1H141.463V39.346C141.463 39.9108 141.199 40.1744 140.633 40.1744H136.548C135.982 40.1744 135.68 39.9108 135.68 39.346V14.8936C135.68 14.1363 136.057 13.7587 136.812 13.7608H157.108ZM141.463 27.1198H155.939C158.507 27.1198 159.453 26.0246 159.453 23.762V22.3279C159.453 20.0621 158.51 18.9701 155.939 18.9701H141.957C141.617 18.9701 141.463 19.083 141.463 19.4219V27.1198Z" fill="#E50016"/>
<path d="M187.943 19.4598C188.035 19.4467 188.129 19.4552 188.217 19.4847C188.306 19.5141 188.386 19.5636 188.452 19.6294C188.518 19.6952 188.567 19.7753 188.597 19.8635C188.626 19.9517 188.635 20.0456 188.622 20.1377V23.3072C188.622 23.7999 188.395 23.9881 187.943 23.9881H177.886C174.636 23.9881 173.765 24.9704 173.765 28.1399V39.3462C173.765 39.911 173.501 40.1746 172.936 40.1746H169.246C168.677 40.1746 168.375 39.911 168.375 39.3462V27.1075C168.375 21.6345 170.575 19.4473 177.37 19.4473L187.943 19.4598Z" fill="#E50016"/>
<path d="M211.005 19.4595C217.809 19.4595 220 21.6562 220 27.1197V32.5549C220 38.0247 217.8 40.1743 211.005 40.1743H200.319C193.518 40.1743 191.325 38.0247 191.325 32.5549V27.1197C191.325 21.6468 193.525 19.4595 200.319 19.4595H211.005ZM196.721 31.6103C196.721 34.7798 197.588 35.7621 200.841 35.7621H210.477C213.765 35.7621 214.635 34.7798 214.635 31.6103V28.0266C214.635 24.8539 213.765 23.9125 210.477 23.9125H200.829C197.576 23.9125 196.708 24.8539 196.708 28.0266L196.721 31.6103Z" fill="#E50016"/>
</svg>
