<svg width="20" height="20" viewBox="0 0 20 20" fill="none" xmlns="http://www.w3.org/2000/svg">
<path d="M11.6714 12.2565C11.1739 12.5886 10.5959 12.7642 10 12.7642C9.40414 12.7642 8.82617 12.5886 8.32859 12.2565L0.133164 6.78502C0.0876953 6.75466 0.0433984 6.72301 0 6.69047V15.656C0 16.6839 0.833008 17.4997 1.84113 17.4997H18.1588C19.1853 17.4997 20 16.6655 20 15.656V6.69043C19.9565 6.72305 19.9121 6.75478 19.8665 6.78517L11.6714 12.2565Z" fill="#D50808"/>
<path d="M0.783203 5.809L8.97863 11.2805C9.28887 11.4876 9.64441 11.5911 9.99996 11.5911C10.3555 11.5911 10.7111 11.4876 11.0214 11.2805L19.2168 5.809C19.7072 5.48179 20 4.93414 20 4.34308C20 3.32678 19.1743 2.5 18.1595 2.5H1.84051C0.825664 2.50004 0 3.32682 0 4.34406C0 4.93414 0.292812 5.48179 0.783203 5.809Z" fill="#D50808"/>
</svg>
