<svg width="64" height="32" viewBox="0 0 64 32" fill="none" xmlns="http://www.w3.org/2000/svg">
<path d="M0.423012 14.9797L14.9681 0.505947C15.4906 -0.101168 16.4088 -0.171942 17.019 0.348104C17.6291 0.868027 17.7002 1.78175 17.1776 2.38886C17.1288 2.44546 17.0758 2.49832 17.019 2.5467L4.96106 14.5599H62.5455C63.3488 14.5599 64 15.2079 64 16.0073C64 16.8067 63.3488 17.4547 62.5455 17.4547H4.96106L17.019 29.4533C17.6291 29.9732 17.7002 30.8869 17.1776 31.4941C16.655 32.1012 15.7369 32.1719 15.1267 31.6519C15.0699 31.6034 15.0168 31.5506 14.9681 31.4941L0.422886 17.0203C-0.140976 16.456 -0.140976 15.5443 0.423012 14.9797Z" fill="#141414"/>
</svg>
