<svg width="64" height="32" viewBox="0 0 64 32" fill="none" xmlns="http://www.w3.org/2000/svg">
<path d="M63.577 14.9797L49.0319 0.505947C48.5094 -0.101168 47.5912 -0.171942 46.981 0.348104C46.3709 0.868027 46.2998 1.78175 46.8224 2.38886C46.8712 2.44546 46.9242 2.49832 46.981 2.5467L59.0389 14.5599H1.45447C0.651238 14.5599 0 15.2079 0 16.0073C0 16.8067 0.651238 17.4547 1.45447 17.4547H59.0389L46.981 29.4533C46.3709 29.9732 46.2998 30.8869 46.8224 31.4941C47.345 32.1012 48.2631 32.1719 48.8733 31.6519C48.9301 31.6034 48.9832 31.5506 49.0319 31.4941L63.5771 17.0203C64.141 16.456 64.141 15.5443 63.577 14.9797Z" fill="#141414"/>
</svg>
