<svg width="37" height="32" viewBox="0 0 37 32" fill="none" xmlns="http://www.w3.org/2000/svg">
<path d="M0.00786668 23.1825C0.00786668 28.0524 3.95108 32 8.81549 32C13.68 32 17.6232 28.0524 17.6232 23.1825C17.6232 18.3126 13.68 14.3651 8.81549 14.3651C7.81578 14.3651 6.85881 14.5396 5.96295 14.8471C7.94505 3.46662 16.8098 -3.87248 8.5922 2.16774C-0.519847 8.86568 -0.00189229 22.9131 0.00830365 23.1705C0.00830365 23.1745 0.00786668 23.1781 0.00786668 23.1825Z" fill="#D50808"/>
<path d="M19.3847 23.1825C19.3847 28.0524 23.3279 32 28.1924 32C33.0568 32 37 28.0524 37 23.1825C37 18.3126 33.0568 14.3651 28.1923 14.3651C27.1925 14.3651 26.2356 14.5396 25.3397 14.8471C27.3218 3.46662 36.1866 -3.87248 27.969 2.16774C18.8569 8.86568 19.3748 22.9131 19.3851 23.1705C19.3851 23.1745 19.3847 23.1781 19.3847 23.1825Z" fill="#D50808"/>
</svg>
